HIERARCHY
ROOT Hips
{
	OFFSET 0.000000 0.000000 0.000000
	CHANNELS 6 Xposition Yposition Zposition Zrotation Yrotation Xrotation 
	JOINT LowerBack
	{
		OFFSET 0.000000 0.000000 0.000000
		CHANNELS 3 Zrotation Yrotation Xrotation
		JOINT Spine
		{
			OFFSET 0.028270 2.035590 -0.193380
			CHANNELS 3 Zrotation Yrotation Xrotation
			JOINT Spine1
			{
				OFFSET 0.056720 2.048850 -0.042750
				CHANNELS 3 Zrotation Yrotation Xrotation
				JOINT Neck
				{
					OFFSET 0.000000 0.000000 0.000000
					CHANNELS 3 Zrotation Yrotation Xrotation
					JOINT Neck1
					{
						OFFSET -0.054170 1.746240 0.172020
						CHANNELS 3 Zrotation Yrotation Xrotation
						JOINT Head
						{
							OFFSET 0.104070 1.761360 -0.123970
							CHANNELS 3 Zrotation Yrotation Xrotation
							End Site
							{
								OFFSET 0.000000 0.000000 0.000000
							}
						}
					}
				}
				JOINT LeftShoulder
				{
					OFFSET 0.000000 0.000000 0.000000
					CHANNELS 3 Zrotation Yrotation Xrotation
					JOINT LeftArm
					{
						OFFSET 3.362410 1.200890 -0.311210
						CHANNELS 3 Zrotation Yrotation Xrotation
						JOINT LeftForeArm
						{
							OFFSET 4.983000 -0.000000 -0.000000
							CHANNELS 3 Zrotation Yrotation Xrotation
							JOINT LeftHand
							{
								OFFSET 3.483560 -0.000000 -0.000000
								CHANNELS 3 Zrotation Yrotation Xrotation
								JOINT LeftFingerBase
								{
									OFFSET 0.000000 0.000000 0.000000
									CHANNELS 3 Zrotation Yrotation Xrotation
									JOINT LeftHandIndex1
									{
										OFFSET 0.715260 -0.000000 -0.000000
										CHANNELS 3 Zrotation Yrotation Xrotation
										End Site
										{
											OFFSET 0.000000 0.000000 0.000000
										}
									}
								}
								JOINT LThumb
								{
									OFFSET 0.000000 0.000000 0.000000
									CHANNELS 3 Zrotation Yrotation Xrotation
									End Site
									{
										OFFSET 0.000000 0.000000 0.000000
									}
								}
							}
						}
					}
				}
				JOINT RightShoulder
				{
					OFFSET 0.000000 0.000000 0.000000
					CHANNELS 3 Zrotation Yrotation Xrotation
					JOINT RightArm
					{
						OFFSET -3.136600 1.374050 -0.404650
						CHANNELS 3 Zrotation Yrotation Xrotation
						JOINT RightForeArm
						{
							OFFSET -5.241900 -0.000000 -0.000000
							CHANNELS 3 Zrotation Yrotation Xrotation
							JOINT RightHand
							{
								OFFSET -3.444170 -0.000000 -0.000000
								CHANNELS 3 Zrotation Yrotation Xrotation
								JOINT RightFingerBase
								{
									OFFSET 0.000000 0.000000 0.000000
									CHANNELS 3 Zrotation Yrotation Xrotation
									JOINT RightHandIndex1
									{
										OFFSET -0.622530 -0.000000 -0.000000
										CHANNELS 3 Zrotation Yrotation Xrotation
										End Site
										{
											OFFSET 0.000000 0.000000 0.000000
										}
									}
								}
								JOINT RThumb
								{
									OFFSET 0.000000 0.000000 0.000000
									CHANNELS 3 Zrotation Yrotation Xrotation
									End Site
									{
										OFFSET 0.000000 0.000000 0.000000
									}
								}
							}
						}
					}
				}
			}
		}
	}
}
}
MOTION
Frames: 6
Frame Time: 0.008333
-19.454768 15.708852 -0.529502 25.440116 87.130911 52.549189 -10.806831 1.808147 -0.614914 -2.810386 2.355658 -2.885706 -4.121614 2.256895 1.818854 6.732263 -2.134224 -6.124584 -2.065429 -0.170247 0.214109 0.000000 0.000000 0.000000 -5.211892 17.232414 1.921974 -47.546673 23.116884 5.065503 -4.985812 -19.356601 -0.010173 -5.506771 -0.561465 0.020443 -0.163632 -0.121524 -0.000000 0.000000 0.000000 0.000000 0.000000 0.000000 0.000000 7.638149 2.510716 1.731999 34.034042 31.736260 26.226233 0.643057 76.232480 0.011857 1.959823 13.891640 0.248961 -0.015251 -0.441130 0.000000 0.000000 0.000000 0.000000 0.000000 0.000000 0.000000 
-19.228891 15.734600 -0.550456 26.677184 87.197413 53.776161 -10.999548 1.763662 -0.538982 -2.860950 2.320837 -2.885270 -4.162968 2.222672 1.771627 6.811097 -2.109042 -6.100582 -2.088802 -0.172018 0.216576 0.000000 0.000000 0.000000 -5.414501 16.843858 1.947500 -47.865739 22.410605 5.066557 -4.986215 -19.080517 -0.010373 -5.531663 -0.446954 0.015333 -0.161733 -0.119298 -0.000000 0.000000 0.000000 0.000000 0.000000 0.000000 0.000000 7.758165 2.514241 1.757795 34.727944 30.893660 26.803194 0.671982 75.933814 0.013166 2.059636 13.835346 0.260089 -0.012179 -0.434015 0.000000 0.000000 0.000000 0.000000 0.000000 0.000000 0.000000 
-19.006610 15.763707 -0.573128 27.868257 87.275588 54.938562 -11.128925 1.715506 -0.441162 -2.896363 2.279021 -2.881169 -4.202132 2.181432 1.718949 6.860183 -2.070659 -6.067829 -2.112963 -0.173946 0.221670 0.000000 0.000000 0.000000 -5.637520 16.417320 1.976444 -48.214895 21.670516 5.212399 -4.981956 -18.893278 -0.010669 -5.587548 -0.314373 0.009324 -0.159529 -0.117000 -0.000000 0.000000 0.000000 0.000000 0.000000 0.000000 0.000000 7.848633 2.524151 1.781011 35.427103 30.024294 27.376256 0.703158 75.545755 0.014422 2.177020 13.775563 0.273115 -0.009546 -0.425888 0.000000 0.000000 0.000000 0.000000 0.000000 0.000000 0.000000 
-18.788320 15.795910 -0.597256 29.091995 87.368135 56.119854 -11.197774 1.662727 -0.325137 -2.917249 2.229452 -2.872403 -4.238814 2.132451 1.667511 6.887126 -2.034047 -6.033121 -2.137811 -0.175924 0.227491 0.000000 0.000000 0.000000 -5.874080 15.972012 2.008286 -48.589538 20.866019 5.516660 -4.972757 -18.790955 -0.011036 -5.674444 -0.166940 0.002417 -0.157039 -0.114547 -0.000000 0.000000 0.000000 0.000000 0.000000 0.000000 0.000000 7.922327 2.523260 1.802619 36.101683 29.150623 27.943043 0.736161 75.079703 0.015593 2.307875 13.718988 0.287837 -0.007352 -0.416956 0.000000 0.000000 0.000000 0.000000 0.000000 0.000000 0.000000 
-18.574340 15.831060 -0.622515 30.422457 87.476518 57.397572 -11.210010 1.605514 -0.193822 -2.924508 2.172590 -2.859599 -4.272868 2.076161 1.617311 6.897049 -2.000844 -5.996934 -2.162575 -0.177888 0.233928 0.000000 0.000000 0.000000 -6.122288 15.507959 2.043221 -48.979309 19.993817 5.979487 -4.958860 -18.779862 -0.011443 -5.792114 -0.009511 -0.005088 -0.154324 -0.111898 -0.000000 0.000000 0.000000 0.000000 0.000000 0.000000 0.000000 7.980921 2.510375 1.822991 36.745388 28.264078 28.494250 0.770783 74.551753 0.016682 2.454662 13.668744 0.304555 -0.005637 -0.407392 0.000000 0.000000 0.000000 0.000000 0.000000 0.000000 0.000000 
-18.364565 15.869255 -0.648434 31.927894 87.600299 58.842437 -11.171320 1.544621 -0.049363 -2.919740 2.109530 -2.842877 -4.304933 2.013676 1.569702 6.897294 -1.977500 -5.961353 -2.187002 -0.179787 0.240364 0.000000 0.000000 0.000000 -6.380158 15.028185 2.080797 -49.372149 19.044617 6.596328 -4.940412 -18.860057 -0.011854 -5.937123 0.151959 -0.013289 -0.151449 -0.109006 -0.000000 0.000000 0.000000 0.000000 0.000000 0.000000 0.000000 8.032062 2.479381 1.843074 37.349316 27.364941 29.023329 0.806890 73.974673 0.017686 2.615924 13.628658 0.323269 -0.004356 -0.397374 0.000000 0.000000 0.000000 0.000000 0.000000 0.000000 0.000000 
